<svg width="158" height="150" viewBox="0 0 158 150" fill="none" xmlns="http://www.w3.org/2000/svg">
<rect width="158" height="150" rx="75" fill="#0071E3"/>
<path d="M106.75 51.25C103.989 51.25 101.804 48.9861 101.214 46.2883C100.272 41.974 98.1115 37.981 94.9402 34.8098C90.58 30.4495 84.6663 28 78.5 28C72.3337 28 66.42 30.4495 62.0598 34.8098C58.8885 37.981 56.728 41.974 55.7855 46.2883C55.1962 48.9861 53.0114 51.25 50.25 51.25H37C34.2386 51.25 32 53.4886 32 56.25V109.375C32 112.458 33.2248 115.415 35.4049 117.595C37.585 119.775 40.5419 121 43.625 121H113.375C116.458 121 119.415 119.775 121.595 117.595C123.775 115.415 125 112.458 125 109.375V56.25C125 53.4886 122.761 51.25 120 51.25H106.75ZM78.5 35.75C82.6109 35.75 86.5533 37.383 89.4602 40.2898C91.1746 42.0043 92.446 44.0791 93.2005 46.3361C94.076 48.9551 91.7614 51.25 89 51.25H68C65.2386 51.25 62.924 48.9551 63.7995 46.3361C64.554 44.0791 65.8254 42.0043 67.5398 40.2898C70.4467 37.383 74.3891 35.75 78.5 35.75Z" fill="white"/>
<path d="M41 84.8723C70.8622 79.4729 87.194 79.0296 116 88" stroke="#0071E3" stroke-width="15"/>
</svg>
