<svg width="158" height="150" viewBox="0 0 158 150" fill="none" xmlns="http://www.w3.org/2000/svg">
<path d="M115 47C112.239 47 110.041 44.747 109.598 42.0214C108.56 35.6451 105.547 29.7064 100.92 25.0797C95.1067 19.2661 87.2217 16 79 16C70.7783 16 62.8933 19.2661 57.0797 25.0797C52.4529 29.7064 49.4397 35.6451 48.4023 42.0214C47.9588 44.747 45.7614 47 43 47H22C19.2386 47 17 49.2386 17 52V124.5C17 128.611 18.633 132.553 21.5398 135.46C24.4467 138.367 28.3891 140 32.5 140H125.5C129.611 140 133.553 138.367 136.46 135.46C139.367 132.553 141 128.611 141 124.5V52C141 49.2386 138.761 47 136 47H115ZM79 26.3333C84.4811 26.3333 89.7378 28.5107 93.6135 32.3865C96.2994 35.0723 98.1696 38.4212 99.0648 42.0485C99.7265 44.7295 97.4281 47 94.6667 47H63.3333C60.5719 47 58.2735 44.7295 58.9352 42.0485C59.8304 38.4212 61.7006 35.0723 64.3865 32.3865C68.2622 28.5107 73.5189 26.3333 79 26.3333Z" fill="#0071E3"/>
<path d="M29 93.4255C68.8162 87.2547 90.592 86.7481 129 97" stroke="white" stroke-width="20"/>
</svg>
