<svg width="158" height="150" viewBox="0 0 158 150" fill="none" xmlns="http://www.w3.org/2000/svg">
<rect width="158" height="150" rx="75" fill="#0071E3"/>
<path d="M115 35C112.239 35 110.041 32.747 109.598 30.0214C108.56 23.6451 105.547 17.7064 100.92 13.0797C95.1067 7.26606 87.2217 4 79 4C70.7783 4 62.8933 7.26606 57.0797 13.0797C52.4529 17.7064 49.4397 23.6451 48.4023 30.0214C47.9588 32.747 45.7614 35 43 35H22C19.2386 35 17 37.2386 17 40V112.5C17 116.611 18.633 120.553 21.5398 123.46C24.4467 126.367 28.3891 128 32.5 128H125.5C129.611 128 133.553 126.367 136.46 123.46C139.367 120.553 141 116.611 141 112.5V40C141 37.2386 138.761 35 136 35H115ZM79 14.3333C84.4811 14.3333 89.7378 16.5107 93.6135 20.3865C96.2994 23.0723 98.1696 26.4212 99.0648 30.0485C99.7265 32.7295 97.4281 35 94.6667 35H63.3333C60.5719 35 58.2735 32.7295 58.9352 30.0485C59.8304 26.4212 61.7006 23.0723 64.3865 20.3865C68.2622 16.5107 73.5189 14.3333 79 14.3333Z" fill="white"/>
<path d="M29 80.4255C68.8162 74.2547 90.592 73.7481 129 84" stroke="#0071E3" stroke-width="20"/>
</svg>
