<svg width="158" height="63" viewBox="0 0 158 63" fill="none" xmlns="http://www.w3.org/2000/svg">
<g clip-path="url(#clip0_3111_9)">
<rect width="158" height="63" fill="white"/>
<path d="M42 52.736C72.2603 50.3154 88.8099 50.1166 118 54.1382" stroke="#0071E3" stroke-width="3"/>
<path d="M26.9 47V12.45H35.6V47H26.9ZM21.5 29.8V22.55H41V29.8H21.5ZM42.0078 47V22.55H50.7578V47H42.0078ZM46.3578 19.7C45.0578 19.7 43.9745 19.2667 43.1078 18.4C42.2411 17.5 41.8078 16.3833 41.8078 15.05C41.8078 13.75 42.2411 12.65 43.1078 11.75C43.9745 10.85 45.0578 10.4 46.3578 10.4C47.7245 10.4 48.8245 10.85 49.6578 11.75C50.5245 12.65 50.9578 13.75 50.9578 15.05C50.9578 16.3833 50.5245 17.5 49.6578 18.4C48.8245 19.2667 47.7245 19.7 46.3578 19.7ZM69.6773 47V33.2C69.6773 32.0667 69.344 31.1833 68.6773 30.55C68.0107 29.8833 67.1607 29.55 66.1273 29.55C65.4273 29.55 64.794 29.7 64.2273 30C63.694 30.3 63.2773 30.7167 62.9773 31.25C62.6773 31.7833 62.5273 32.4333 62.5273 33.2L59.1273 31.6C59.1273 29.6333 59.5607 27.95 60.4273 26.55C61.294 25.1167 62.4773 24.0167 63.9773 23.25C65.5107 22.45 67.244 22.05 69.1773 22.05C70.944 22.05 72.5107 22.4667 73.8773 23.3C75.2773 24.1 76.3773 25.1833 77.1773 26.55C77.9773 27.9167 78.3773 29.4667 78.3773 31.2V47H69.6773ZM53.8273 47V22.55H62.5273V47H53.8273ZM91.4777 47.5C89.1111 47.5 87.0277 46.95 85.2277 45.85C83.4277 44.75 82.0111 43.25 80.9777 41.35C79.9777 39.4167 79.4777 37.2333 79.4777 34.8C79.4777 32.3333 79.9777 30.1333 80.9777 28.2C82.0111 26.2667 83.4111 24.7667 85.1777 23.7C86.9777 22.6 89.0777 22.05 91.4777 22.05C93.0111 22.05 94.4444 22.3333 95.7777 22.9C97.1111 23.4333 98.2277 24.2 99.1277 25.2C100.028 26.2 100.561 27.3333 100.728 28.6V40.55C100.561 41.8167 100.028 42.9833 99.1277 44.05C98.2277 45.1167 97.1111 45.9667 95.7777 46.6C94.4444 47.2 93.0111 47.5 91.4777 47.5ZM93.0277 39.75C93.9944 39.75 94.8277 39.55 95.5277 39.15C96.2277 38.7167 96.7777 38.1333 97.1777 37.4C97.6111 36.6333 97.8277 35.75 97.8277 34.75C97.8277 33.7833 97.6277 32.9333 97.2277 32.2C96.8277 31.4667 96.2611 30.8833 95.5277 30.45C94.8277 30.0167 94.0111 29.8 93.0777 29.8C92.1444 29.8 91.3111 30.0167 90.5777 30.45C89.8777 30.8833 89.3111 31.4833 88.8777 32.25C88.4777 32.9833 88.2777 33.8167 88.2777 34.75C88.2777 35.7167 88.4777 36.5833 88.8777 37.35C89.2777 38.0833 89.8444 38.6667 90.5777 39.1C91.3111 39.5333 92.1277 39.75 93.0277 39.75ZM106.028 47H97.4777V40.45L98.7277 34.45L97.3277 28.55V10.55H106.028V47ZM119.305 47.5C117.038 47.5 115.021 46.95 113.255 45.85C111.488 44.75 110.105 43.25 109.105 41.35C108.105 39.4167 107.605 37.2333 107.605 34.8C107.605 32.3333 108.105 30.1333 109.105 28.2C110.105 26.2667 111.488 24.7667 113.255 23.7C115.021 22.6 117.038 22.05 119.305 22.05C120.838 22.05 122.238 22.3333 123.505 22.9C124.771 23.4333 125.805 24.2 126.605 25.2C127.438 26.2 127.938 27.3333 128.105 28.6V40.9C127.938 42.2 127.438 43.35 126.605 44.35C125.805 45.3167 124.771 46.0833 123.505 46.65C122.238 47.2167 120.838 47.5 119.305 47.5ZM121.155 39.75C122.588 39.75 123.738 39.2833 124.605 38.35C125.505 37.4167 125.955 36.2167 125.955 34.75C125.955 33.7833 125.755 32.9333 125.355 32.2C124.955 31.4667 124.388 30.8833 123.655 30.45C122.955 30.0167 122.138 29.8 121.205 29.8C120.271 29.8 119.438 30.0167 118.705 30.45C118.005 30.8833 117.438 31.4833 117.005 32.25C116.605 32.9833 116.405 33.8167 116.405 34.75C116.405 35.7167 116.605 36.5833 117.005 37.35C117.405 38.0833 117.971 38.6667 118.705 39.1C119.438 39.5333 120.255 39.75 121.155 39.75ZM125.605 47V40.45L126.855 34.45L125.605 28.55V22.55H134.155V47H125.605Z" fill="#1D1D1F"/>
</g>
<defs>
<clipPath id="clip0_3111_9">
<rect width="158" height="63" fill="white"/>
</clipPath>
</defs>
</svg>
