<svg width="158" height="150" viewBox="0 0 158 150" fill="none" xmlns="http://www.w3.org/2000/svg">
<rect width="158" height="150" fill="#0071E3"/>
<path d="M65.211 23.21C66.471 23.09 67.431 23.24 68.091 23.66C68.811 24.08 69.561 24.89 70.341 26.09C70.821 26.87 71.061 27.53 71.061 28.07C71.061 29.39 70.221 30.17 68.541 30.41L65.391 30.77C62.451 31.19 60.891 31.4 60.711 31.4C59.691 41 58.881 49.34 58.281 56.42C57.681 63.5 57.291 70.49 57.111 77.39C57.051 78.23 56.691 78.86 56.031 79.28C55.431 79.7 54.621 79.91 53.601 79.91C51.801 79.91 50.001 79.43 48.201 78.47C46.461 77.45 45.621 76.31 45.681 75.05C45.861 68.69 46.221 62.21 46.761 55.61C47.301 48.95 48.021 41.24 48.921 32.48L43.251 33.2C42.411 33.26 41.751 33.23 41.271 33.11C40.851 32.93 40.431 32.57 40.011 32.03C39.591 31.49 39.171 30.89 38.751 30.23C38.271 29.57 38.031 28.91 38.031 28.25C38.031 27.71 38.241 27.23 38.661 26.81C39.081 26.39 39.711 26.12 40.551 26C41.871 25.82 43.401 25.61 45.141 25.37L49.731 24.74L51.351 9.16999C51.531 7.48999 52.761 6.64999 55.041 6.64999C56.841 6.64999 58.581 7.16 60.261 8.18C62.001 9.13999 62.811 10.25 62.691 11.51L61.521 23.57C63.201 23.45 64.431 23.33 65.211 23.21ZM73.8658 28.43C73.9258 27.23 74.7958 26.18 76.4758 25.28C78.1558 24.32 79.8358 23.84 81.5158 23.84C82.4758 23.84 83.2558 24.05 83.8558 24.47C84.4558 24.83 84.7258 25.43 84.6658 26.27L82.0558 75.14C81.9958 76.4 81.1258 77.51 79.4458 78.47C77.7658 79.37 76.0858 79.82 74.4058 79.82C72.1858 79.82 71.1058 78.95 71.1658 77.21L73.8658 28.43ZM73.6858 16.55C73.5658 17.39 73.7758 18.02 74.3158 18.44C74.9158 18.86 75.6958 19.07 76.6558 19.07C78.2758 19.07 79.9258 18.62 81.6058 17.72C83.2858 16.82 84.2158 15.74 84.3958 14.48C84.8758 11.48 85.2058 9.23 85.3858 7.73C85.6258 6.22999 84.6958 5.47999 82.5958 5.47999C80.9758 5.47999 79.2958 5.93 77.5558 6.83C75.8158 7.73 74.8858 8.75 74.7658 9.89L73.6858 16.55ZM122.121 25.46C120.681 36.38 119.961 46.67 119.961 56.33C119.961 61.01 120.141 65.75 120.501 70.55C120.621 70.91 120.681 71.21 120.681 71.45C120.681 71.63 120.621 71.9 120.501 72.26C120.501 72.32 120.471 72.35 120.411 72.35V72.53C120.051 73.55 119.211 74.45 117.891 75.23C116.571 75.95 115.161 76.37 113.661 76.49C111.261 76.73 109.821 76.1 109.341 74.6C107.241 68.96 103.911 61.16 99.3513 51.2L98.2713 48.68C97.7913 56.18 97.4913 64.19 97.3713 72.71C97.3713 73.97 96.5313 75.11 94.8513 76.13C93.1713 77.09 91.4613 77.57 89.7213 77.57C88.6413 77.57 87.7713 77.36 87.1113 76.94C86.4513 76.52 86.1513 75.83 86.2113 74.87C86.5713 58.55 87.7413 43.1 89.7213 28.52L89.8113 28.16C89.6913 26.84 90.5013 25.64 92.2413 24.56C93.9813 23.48 95.7213 22.94 97.4613 22.94C99.2613 22.94 100.371 23.54 100.791 24.74C102.711 29.96 105.561 36.68 109.341 44.9C109.701 39.26 110.331 33.53 111.231 27.71C111.411 26.51 112.371 25.46 114.111 24.56C115.851 23.6 117.561 23.12 119.241 23.12C121.401 23.12 122.361 23.9 122.121 25.46Z" fill="white"/>
<path d="M58.2545 127.28C64.5545 122.42 69.5045 117.26 73.1045 111.8C68.3045 110.36 63.4745 107.45 58.6145 103.07C58.4945 108.53 58.3745 116.6 58.2545 127.28ZM84.2645 106.85C84.6845 107.15 84.8945 107.54 84.8945 108.02C84.8945 108.44 84.7745 108.86 84.5345 109.28C81.3545 115.4 77.1545 120.83 71.9345 125.57C66.7145 130.31 60.3845 135.05 52.9445 139.79C52.2245 140.21 51.4145 140.6 50.5145 140.96C49.6145 141.26 48.7445 141.41 47.9045 141.41C47.0045 141.41 46.2245 141.17 45.5645 140.69C44.8445 140.15 44.4845 139.49 44.4845 138.71C44.4845 137.69 45.0545 136.79 46.1945 136.01C46.3145 135.95 46.4345 135.86 46.5545 135.74C46.6745 135.62 46.8545 135.5 47.0945 135.38L47.4545 113.06C47.5745 108.2 47.6945 100.79 47.8145 90.83C47.7545 90.71 47.7245 90.5 47.7245 90.2C47.7245 90.08 47.7845 89.78 47.9045 89.3V88.31C47.9645 87.17 48.7445 86.21 50.2445 85.43C51.7445 84.59 53.3345 84.17 55.0145 84.17C56.1545 84.17 57.0545 84.38 57.7145 84.8C58.4345 85.22 58.7945 85.88 58.7945 86.78V87.68C66.0545 97.7 73.9745 103.82 82.5545 106.04C83.4545 106.34 84.0245 106.61 84.2645 106.85ZM100.184 115.49L99.4639 117.29L105.764 122.6L105.134 119.99C104.714 118.31 103.874 114.74 102.614 109.28L100.184 115.49ZM110.444 89.21C111.284 94.43 112.334 99.74 113.594 105.14C114.914 110.48 116.504 116.63 118.364 123.59C120.104 130.19 121.244 134.57 121.784 136.73C121.844 136.91 121.874 137.18 121.874 137.54C121.874 138.98 121.064 140.24 119.444 141.32C117.824 142.34 116.144 142.85 114.404 142.85C112.964 142.85 111.854 142.46 111.074 141.68C109.334 139.82 107.504 138.05 105.584 136.37C103.664 134.69 101.144 132.62 98.0239 130.16L95.0539 127.73C92.5339 133.13 90.5839 137.12 89.2039 139.7C88.7839 140.6 87.6739 141.44 85.8739 142.22C84.1339 142.94 82.5139 143.3 81.0139 143.3C79.3339 143.3 78.4939 142.76 78.4939 141.68C78.4939 141.38 78.5839 141.02 78.7639 140.6C80.5639 136.16 82.6939 131.06 85.1539 125.3L87.0439 120.71C85.5439 119.21 84.7939 118.46 84.7939 118.46C84.3739 118.04 84.1639 117.56 84.1639 117.02C84.1639 116 84.8239 115.04 86.1439 114.14C87.4639 113.18 88.9339 112.55 90.5539 112.25C93.4339 105.35 96.1339 98.33 98.6539 91.19C98.8939 90.35 99.6439 89.63 100.904 89.03C102.224 88.37 103.604 87.95 105.044 87.77C106.064 87.47 106.934 87.32 107.654 87.32C109.334 87.32 110.264 87.95 110.444 89.21Z" fill="white"/>
</svg>
