<svg width="46" height="57" viewBox="0 0 46 57" fill="none" xmlns="http://www.w3.org/2000/svg">
<rect width="46" height="57" fill="#0071E3"/>
<path d="M14.6376 8.915C15.1276 8.86833 15.501 8.92667 15.7576 9.09C16.0376 9.25333 16.3293 9.56833 16.6326 10.035C16.8193 10.3383 16.9126 10.595 16.9126 10.805C16.9126 11.3183 16.586 11.6217 15.9326 11.715L14.7076 11.855C13.5643 12.0183 12.9576 12.1 12.8876 12.1C12.491 15.8333 12.176 19.0767 11.9426 21.83C11.7093 24.5833 11.5576 27.3017 11.4876 29.985C11.4643 30.3117 11.3243 30.5567 11.0676 30.72C10.8343 30.8833 10.5193 30.965 10.1226 30.965C9.42262 30.965 8.72262 30.7783 8.02262 30.405C7.34595 30.0083 7.01928 29.565 7.04262 29.075C7.11262 26.6017 7.25262 24.0817 7.46262 21.515C7.67262 18.925 7.95262 15.9267 8.30262 12.52L6.09762 12.8C5.77095 12.8233 5.51428 12.8117 5.32762 12.765C5.16428 12.695 5.00095 12.555 4.83762 12.345C4.67428 12.135 4.51095 11.9017 4.34762 11.645C4.16095 11.3883 4.06762 11.1317 4.06762 10.875C4.06762 10.665 4.14928 10.4783 4.31262 10.315C4.47595 10.1517 4.72095 10.0467 5.04762 10C5.56095 9.93 6.15595 9.84833 6.83262 9.755L8.61762 9.51L9.24762 3.455C9.31762 2.80166 9.79595 2.475 10.6826 2.475C11.3826 2.475 12.0593 2.67333 12.7126 3.07C13.3893 3.44333 13.7043 3.875 13.6576 4.365L13.2026 9.055C13.856 9.00833 14.3343 8.96167 14.6376 8.915ZM18.0034 10.945C18.0267 10.4783 18.365 10.07 19.0184 9.72C19.6717 9.34667 20.325 9.16 20.9784 9.16C21.3517 9.16 21.655 9.24167 21.8884 9.405C22.1217 9.545 22.2267 9.77833 22.2034 10.105L21.1884 29.11C21.165 29.6 20.8267 30.0317 20.1734 30.405C19.52 30.755 18.8667 30.93 18.2134 30.93C17.35 30.93 16.93 30.5917 16.9534 29.915L18.0034 10.945ZM17.9334 6.325C17.8867 6.65167 17.9684 6.89667 18.1784 7.06C18.4117 7.22333 18.715 7.305 19.0884 7.305C19.7184 7.305 20.36 7.13 21.0134 6.78C21.6667 6.43 22.0284 6.01 22.0984 5.52C22.285 4.35333 22.4134 3.47833 22.4834 2.895C22.5767 2.31166 22.215 2.02 21.3984 2.02C20.7684 2.02 20.115 2.195 19.4384 2.545C18.7617 2.895 18.4 3.29167 18.3534 3.735L17.9334 6.325ZM36.7694 9.79C36.2094 14.0367 35.9294 18.0383 35.9294 21.795C35.9294 23.615 35.9994 25.4583 36.1394 27.325C36.186 27.465 36.2094 27.5817 36.2094 27.675C36.2094 27.745 36.186 27.85 36.1394 27.99C36.1394 28.0133 36.1277 28.025 36.1044 28.025V28.095C35.9644 28.4917 35.6377 28.8417 35.1244 29.145C34.611 29.425 34.0627 29.5883 33.4794 29.635C32.546 29.7283 31.986 29.4833 31.7994 28.9C30.9827 26.7067 29.6877 23.6733 27.9144 19.8L27.4944 18.82C27.3077 21.7367 27.191 24.8517 27.1444 28.165C27.1444 28.655 26.8177 29.0983 26.1644 29.495C25.511 29.8683 24.846 30.055 24.1694 30.055C23.7494 30.055 23.411 29.9733 23.1544 29.81C22.8977 29.6467 22.781 29.3783 22.8044 29.005C22.9444 22.6583 23.3994 16.65 24.1694 10.98L24.2044 10.84C24.1577 10.3267 24.4727 9.86 25.1494 9.44C25.826 9.02 26.5027 8.81 27.1794 8.81C27.8794 8.81 28.311 9.04333 28.4744 9.51C29.221 11.54 30.3294 14.1533 31.7994 17.35C31.9394 15.1567 32.1844 12.9283 32.5344 10.665C32.6044 10.1983 32.9777 9.79 33.6544 9.44C34.331 9.06667 34.996 8.88 35.6494 8.88C36.4894 8.88 36.8627 9.18333 36.7694 9.79Z" fill="white"/>
<path d="M12.7934 47.72C15.2434 45.83 17.1684 43.8233 18.5684 41.7C16.7017 41.14 14.8234 40.0083 12.9334 38.305C12.8867 40.4283 12.8401 43.5667 12.7934 47.72ZM22.9084 39.775C23.0717 39.8917 23.1534 40.0433 23.1534 40.23C23.1534 40.3933 23.1067 40.5567 23.0134 40.72C21.7767 43.1 20.1434 45.2117 18.1134 47.055C16.0834 48.8983 13.6217 50.7417 10.7284 52.585C10.4484 52.7483 10.1334 52.9 9.7834 53.04C9.4334 53.1567 9.09507 53.215 8.7684 53.215C8.4184 53.215 8.11507 53.1217 7.8584 52.935C7.5784 52.725 7.4384 52.4683 7.4384 52.165C7.4384 51.7683 7.66007 51.4183 8.1034 51.115C8.15007 51.0917 8.19673 51.0567 8.2434 51.01C8.29007 50.9633 8.36007 50.9167 8.4534 50.87L8.5934 42.19C8.64007 40.3 8.68673 37.4183 8.7334 33.545C8.71007 33.4983 8.6984 33.4167 8.6984 33.3C8.6984 33.2533 8.72173 33.1367 8.7684 32.95V32.565C8.79173 32.1217 9.09507 31.7483 9.6784 31.445C10.2617 31.1183 10.8801 30.955 11.5334 30.955C11.9767 30.955 12.3267 31.0367 12.5834 31.2C12.8634 31.3633 13.0034 31.62 13.0034 31.97V32.32C15.8267 36.2167 18.9067 38.5967 22.2434 39.46C22.5934 39.5767 22.8151 39.6817 22.9084 39.775ZM29.0993 43.135L28.8193 43.835L31.2693 45.9L31.0243 44.885C30.861 44.2317 30.5343 42.8433 30.0443 40.72L29.0993 43.135ZM33.0893 32.915C33.416 34.945 33.8243 37.01 34.3143 39.11C34.8276 41.1867 35.446 43.5783 36.1693 46.285C36.846 48.8517 37.2893 50.555 37.4993 51.395C37.5226 51.465 37.5343 51.57 37.5343 51.71C37.5343 52.27 37.2193 52.76 36.5893 53.18C35.9593 53.5767 35.306 53.775 34.6293 53.775C34.0693 53.775 33.6376 53.6233 33.3343 53.32C32.6576 52.5967 31.946 51.9083 31.1993 51.255C30.4526 50.6017 29.4726 49.7967 28.2593 48.84L27.1043 47.895C26.1243 49.995 25.366 51.5467 24.8293 52.55C24.666 52.9 24.2343 53.2267 23.5343 53.53C22.8576 53.81 22.2276 53.95 21.6443 53.95C20.991 53.95 20.6643 53.74 20.6643 53.32C20.6643 53.2033 20.6993 53.0633 20.7693 52.9C21.4693 51.1733 22.2976 49.19 23.2543 46.95L23.9893 45.165C23.406 44.5817 23.1143 44.29 23.1143 44.29C22.951 44.1267 22.8693 43.94 22.8693 43.73C22.8693 43.3333 23.126 42.96 23.6393 42.61C24.1526 42.2367 24.7243 41.9917 25.3543 41.875C26.4743 39.1917 27.5243 36.4617 28.5043 33.685C28.5976 33.3583 28.8893 33.0783 29.3793 32.845C29.8926 32.5883 30.4293 32.425 30.9893 32.355C31.386 32.2383 31.7243 32.18 32.0043 32.18C32.6576 32.18 33.0193 32.425 33.0893 32.915Z" fill="white"/>
</svg>
