<svg width="330" height="165" viewBox="0 0 330 165" fill="none" xmlns="http://www.w3.org/2000/svg">
<g clip-path="url(#clip0_3359_3)">
<path d="M122.1 90.6016H112V37.6016H121.4V46.4016C125 40.3016 130.7 36.6016 138 36.6016C145.8 36.6016 151.7 40.6016 154.1 47.6016C157.8 40.8016 163.9 36.6016 172 36.6016C182.9 36.6016 189.9 43.7016 189.9 56.3016V90.6016H179.8V59.5016C179.8 50.7016 175.9 45.5016 168.5 45.5016C161.6 45.5016 156 51.3016 156 60.2016V90.6016H145.9V59.5016C145.9 50.7016 142 45.5016 134.6 45.5016C127.6 45.5016 122.1 51.3016 122.1 60.2016V90.6016ZM294.102 37.6016L267.602 109.902H256.602L264.202 89.9016L243.302 37.6016H254.202L269.602 78.0016L283.902 37.6016H294.102ZM309.573 25.3016C309.573 29.1016 306.573 32.0016 302.273 32.0016C297.973 32.0016 294.873 29.1016 294.873 25.3016C294.873 21.4016 297.973 18.6016 302.273 18.6016C306.573 18.6016 309.573 21.4016 309.573 25.3016ZM307.373 90.6016H297.273V37.6016H307.373V90.6016Z" fill="black"/>
<path d="M223.847 93.1515L226.652 85.446C221.533 89.8615 214.86 90.9446 207.531 88.2768C197.194 84.5146 192.583 76.132 195.901 67.017C199.458 57.2442 209.104 55.0086 223.951 60.4125C226.864 61.4728 229.179 62.4218 233.049 64.3623L234.383 60.6975C236.982 53.5559 234.6 48.1129 228.022 45.7188C221.068 43.1878 215.335 45.7834 212.522 52.6345L203.877 49.4879C208.417 38.4766 219.106 33.9602 230.758 38.2012C243.068 42.6817 247.679 52.2348 243.37 64.0749L231.741 96.0244L223.847 93.1515ZM205.024 70.0185C203.143 75.1868 205.765 79.9719 211.873 82.1951C219.86 85.1022 226.653 81.9346 229.423 74.3231L230.894 70.2824C227.4 68.4787 224.803 67.427 222.36 66.5378C212.869 63.0834 207.145 64.1924 205.024 70.0185Z" fill="black"/>
<circle cx="55.5" cy="59.5" r="38.5" fill="#F97316"/>
<path d="M22 27C68.9565 27 -17.5217 86.9414 85 65.2819" stroke="black" stroke-width="7" stroke-linecap="round"/>
<circle cx="6.5" cy="6.5" r="6.5" transform="matrix(1 0 0 -1 77 91)" fill="black"/>
<circle cx="6.5" cy="6.5" r="6.5" transform="matrix(1 0 0 -1 32 90)" fill="black"/>
<path d="M102.33 133L94.53 114.73V133H92.43V111.46H95.34L103.32 130.24L111.36 111.46H114.24V133H112.17V114.73L104.31 133H102.33ZM128.66 133V130.12C127.73 132.1 125.81 133.3 123.35 133.3C120.08 133.3 117.95 131.47 117.95 128.62C117.95 125.53 120.41 123.91 125.21 123.91C126.17 123.91 126.89 123.97 128.45 124.09V122.77C128.45 120.13 127.04 118.57 124.64 118.57C122.06 118.57 120.44 120.16 120.41 122.74H118.49C118.58 119.23 121.01 116.89 124.61 116.89C128.3 116.89 130.46 119.05 130.46 122.71V133H128.66ZM119.96 128.56C119.96 130.48 121.43 131.77 123.65 131.77C126.59 131.77 128.45 129.85 128.45 126.88V125.47C127.1 125.35 126.17 125.32 125.3 125.32C121.7 125.32 119.96 126.37 119.96 128.56ZM136.978 124.54V133H134.878V117.19H136.828V120.79C137.908 118.45 140.248 116.95 142.858 116.95V119.14C139.528 119.02 136.978 121.09 136.978 124.54ZM147.525 133H145.425V111.46H147.525V124.54L155.145 117.19H157.635L149.655 124.93L158.295 133H155.565L147.525 125.41V133ZM166.283 133.3C161.843 133.3 158.903 129.97 158.903 124.96C158.903 120.34 161.963 116.89 166.163 116.89C170.663 116.89 173.603 120.52 173.243 125.59H161.003C161.183 129.34 163.163 131.65 166.253 131.65C168.893 131.65 170.723 130.18 171.233 127.66H173.303C172.583 131.17 169.913 133.3 166.283 133.3ZM166.133 118.51C163.283 118.51 161.273 120.7 161.003 124.15H171.053C170.873 120.61 169.043 118.51 166.133 118.51ZM184.814 130.99V132.85C184.004 133.18 183.314 133.3 182.534 133.3C179.924 133.3 177.914 131.95 177.914 128.53V118.96H174.194V117.19H177.914V112.51H180.014V117.19H184.964V118.96H180.014V128.08C180.014 130.54 181.214 131.38 182.954 131.38C183.614 131.38 184.154 131.26 184.814 130.99ZM202.629 125.08C202.629 129.97 199.899 133.3 195.699 133.3C193.329 133.3 191.319 132.01 190.239 129.76V138.79H188.139V117.19H190.089V120.61C191.169 118.27 193.269 116.89 195.699 116.89C199.899 116.89 202.629 120.25 202.629 125.08ZM200.499 125.08C200.499 121.09 198.429 118.72 195.339 118.72C192.399 118.72 190.209 121.06 190.209 125.08C190.209 129.01 192.339 131.47 195.339 131.47C198.429 131.47 200.499 129.13 200.499 125.08ZM208.11 133H206.01V111.46H208.11V133ZM222.381 133V130.12C221.451 132.1 219.531 133.3 217.071 133.3C213.801 133.3 211.671 131.47 211.671 128.62C211.671 125.53 214.131 123.91 218.931 123.91C219.891 123.91 220.611 123.97 222.171 124.09V122.77C222.171 120.13 220.761 118.57 218.361 118.57C215.781 118.57 214.161 120.16 214.131 122.74H212.211C212.301 119.23 214.731 116.89 218.331 116.89C222.021 116.89 224.181 119.05 224.181 122.71V133H222.381ZM213.681 128.56C213.681 130.48 215.151 131.77 217.371 131.77C220.311 131.77 222.171 129.85 222.171 126.88V125.47C220.821 125.35 219.891 125.32 219.021 125.32C215.421 125.32 213.681 126.37 213.681 128.56ZM234.508 133.33C230.338 133.33 227.428 129.94 227.428 125.08C227.428 120.28 230.368 116.89 234.508 116.89C238.198 116.89 240.838 119.35 241.468 123.31H239.338C238.858 120.43 237.058 118.72 234.508 118.72C231.568 118.72 229.558 121.3 229.558 125.08C229.558 128.92 231.568 131.5 234.508 131.5C237.088 131.5 238.858 129.82 239.338 126.88H241.468C240.898 130.9 238.228 133.33 234.508 133.33ZM250.863 133.3C246.423 133.3 243.483 129.97 243.483 124.96C243.483 120.34 246.543 116.89 250.743 116.89C255.243 116.89 258.183 120.52 257.823 125.59H245.583C245.763 129.34 247.743 131.65 250.833 131.65C253.473 131.65 255.303 130.18 255.813 127.66H257.883C257.163 131.17 254.493 133.3 250.863 133.3ZM250.713 118.51C247.863 118.51 245.853 120.7 245.583 124.15H255.633C255.453 120.61 253.623 118.51 250.713 118.51Z" fill="black"/>
</g>
<defs>
<clipPath id="clip0_3359_3">
<rect width="330" height="165" fill="white"/>
</clipPath>
</defs>
</svg>
