<svg width="250" height="200" viewBox="0 0 250 200" fill="none" xmlns="http://www.w3.org/2000/svg">
<g clip-path="url(#clip0_3338_66)">
<path d="M37.1 164.602H27V111.602H36.4V120.402C40 114.302 45.7 110.602 53 110.602C60.8 110.602 66.7 114.602 69.1 121.602C72.8 114.802 78.9 110.602 87 110.602C97.9 110.602 104.9 117.702 104.9 130.302V164.602H94.8V133.502C94.8 124.702 90.9 119.502 83.5 119.502C76.6 119.502 71 125.302 71 134.202V164.602H60.9V133.502C60.9 124.702 57 119.502 49.6 119.502C42.6 119.502 37.1 125.302 37.1 134.202V164.602ZM209.102 111.602L182.602 183.902H171.602L179.202 163.902L158.302 111.602H169.202L184.602 152.002L198.902 111.602H209.102ZM224.573 99.3016C224.573 103.102 221.573 106.002 217.273 106.002C212.973 106.002 209.873 103.102 209.873 99.3016C209.873 95.4016 212.973 92.6016 217.273 92.6016C221.573 92.6016 224.573 95.4016 224.573 99.3016ZM222.373 164.602H212.273V111.602H222.373V164.602Z" fill="black"/>
<path d="M138.847 167.151L141.652 159.446C136.533 163.862 129.86 164.945 122.531 162.277C112.194 158.515 107.583 150.132 110.901 141.017C114.458 131.244 124.104 129.009 138.951 134.413C141.864 135.473 144.179 136.422 148.049 138.362L149.383 134.698C151.982 127.556 149.6 122.113 143.022 119.719C136.068 117.188 130.335 119.783 127.522 126.634L118.877 123.488C123.417 112.477 134.106 107.96 145.758 112.201C158.068 116.682 162.679 126.235 158.37 138.075L146.741 170.024L138.847 167.151ZM120.024 144.018C118.143 149.187 120.765 153.972 126.873 156.195C134.86 159.102 141.653 155.935 144.423 148.323L145.894 144.282C142.4 142.479 139.803 141.427 137.36 140.538C127.869 137.083 122.145 138.192 120.024 144.018Z" fill="black"/>
<circle cx="119.5" cy="56.5" r="38.5" fill="#F97316"/>
<path d="M86 24C132.957 24 46.4783 83.9414 149 62.2819" stroke="black" stroke-width="7" stroke-linecap="round"/>
<circle cx="6.5" cy="6.5" r="6.5" transform="matrix(1 0 0 -1 141 88)" fill="black"/>
<circle cx="6.5" cy="6.5" r="6.5" transform="matrix(1 0 0 -1 96 87)" fill="black"/>
</g>
<defs>
<clipPath id="clip0_3338_66">
<rect width="250" height="200" fill="white"/>
</clipPath>
</defs>
</svg>
