<svg width="152" height="100" viewBox="0 0 152 100" fill="none" xmlns="http://www.w3.org/2000/svg">
<path d="M29.04 19.52C30.16 19.4133 31.0133 19.5467 31.6 19.92C32.24 20.2933 32.9067 21.0133 33.6 22.08C34.0267 22.7733 34.24 23.36 34.24 23.84C34.24 25.0133 33.4933 25.7067 32 25.92L29.2 26.24C26.5867 26.6133 25.2 26.8 25.04 26.8C24.1333 35.3333 23.4133 42.7467 22.88 49.04C22.3467 55.3333 22 61.5467 21.84 67.68C21.7867 68.4267 21.4667 68.9867 20.88 69.36C20.3467 69.7333 19.6267 69.92 18.72 69.92C17.12 69.92 15.52 69.4933 13.92 68.64C12.3733 67.7333 11.6267 66.72 11.68 65.6C11.84 59.9467 12.16 54.1867 12.64 48.32C13.12 42.4 13.76 35.5467 14.56 27.76L9.52 28.4C8.77333 28.4533 8.18667 28.4267 7.76 28.32C7.38667 28.16 7.01333 27.84 6.64 27.36C6.26667 26.88 5.89333 26.3467 5.52 25.76C5.09333 25.1733 4.88 24.5867 4.88 24C4.88 23.52 5.06667 23.0933 5.44 22.72C5.81333 22.3467 6.37333 22.1067 7.12 22C8.29333 21.84 9.65333 21.6533 11.2 21.44L15.28 20.88L16.72 7.04C16.88 5.54666 17.9733 4.8 20 4.8C21.6 4.8 23.1467 5.25333 24.64 6.16C26.1867 7.01333 26.9067 8 26.8 9.12L25.76 19.84C27.2533 19.7333 28.3467 19.6267 29.04 19.52ZM36.7331 24.16C36.7865 23.0933 37.5598 22.16 39.0531 21.36C40.5465 20.5067 42.0398 20.08 43.5331 20.08C44.3865 20.08 45.0798 20.2667 45.6131 20.64C46.1465 20.96 46.3865 21.4933 46.3331 22.24L44.0131 65.68C43.9598 66.8 43.1865 67.7867 41.6931 68.64C40.1998 69.44 38.7065 69.84 37.2131 69.84C35.2398 69.84 34.2798 69.0667 34.3331 67.52L36.7331 24.16ZM36.5731 13.6C36.4665 14.3467 36.6531 14.9067 37.1331 15.28C37.6665 15.6533 38.3598 15.84 39.2131 15.84C40.6531 15.84 42.1198 15.44 43.6131 14.64C45.1065 13.84 45.9331 12.88 46.0931 11.76C46.5198 9.09333 46.8131 7.09333 46.9731 5.76C47.1865 4.42666 46.3598 3.75999 44.4931 3.75999C43.0531 3.75999 41.5598 4.16 40.0131 4.96C38.4665 5.76 37.6398 6.66666 37.5331 7.68L36.5731 13.6ZM79.6269 21.52C78.3469 31.2267 77.7069 40.3733 77.7069 48.96C77.7069 53.12 77.8669 57.3333 78.1869 61.6C78.2935 61.92 78.3469 62.1867 78.3469 62.4C78.3469 62.56 78.2935 62.8 78.1869 63.12C78.1869 63.1733 78.1602 63.2 78.1069 63.2V63.36C77.7869 64.2667 77.0402 65.0667 75.8669 65.76C74.6935 66.4 73.4402 66.7733 72.1069 66.88C69.9735 67.0933 68.6935 66.5333 68.2669 65.2C66.4002 60.1867 63.4402 53.2533 59.3869 44.4L58.4269 42.16C58.0002 48.8267 57.7335 55.9467 57.6269 63.52C57.6269 64.64 56.8802 65.6533 55.3869 66.56C53.8935 67.4133 52.3735 67.84 50.8269 67.84C49.8669 67.84 49.0935 67.6533 48.5069 67.28C47.9202 66.9067 47.6535 66.2933 47.7069 65.44C48.0269 50.9333 49.0669 37.2 50.8269 24.24L50.9069 23.92C50.8002 22.7467 51.5202 21.68 53.0669 20.72C54.6135 19.76 56.1602 19.28 57.7069 19.28C59.3069 19.28 60.2935 19.8133 60.6669 20.88C62.3735 25.52 64.9069 31.4933 68.2669 38.8C68.5869 33.7867 69.1469 28.6933 69.9469 23.52C70.1069 22.4533 70.9602 21.52 72.5069 20.72C74.0535 19.8667 75.5735 19.44 77.0669 19.44C78.9869 19.44 79.8402 20.1333 79.6269 21.52ZM91.8738 53.36C97.4738 49.04 101.874 44.4533 105.074 39.6C100.807 38.32 96.5138 35.7333 92.1938 31.84C92.0871 36.6933 91.9804 43.8667 91.8738 53.36ZM114.994 35.2C115.367 35.4667 115.554 35.8133 115.554 36.24C115.554 36.6133 115.447 36.9867 115.234 37.36C112.407 42.8 108.674 47.6267 104.034 51.84C99.3938 56.0533 93.7671 60.2667 87.1538 64.48C86.5138 64.8533 85.7938 65.2 84.9938 65.52C84.1938 65.7867 83.4204 65.92 82.6738 65.92C81.8738 65.92 81.1804 65.7067 80.5938 65.28C79.9537 64.8 79.6337 64.2133 79.6337 63.52C79.6337 62.6133 80.1404 61.8133 81.1538 61.12C81.2604 61.0667 81.3671 60.9867 81.4738 60.88C81.5804 60.7733 81.7404 60.6667 81.9538 60.56L82.2738 40.72C82.3804 36.4 82.4871 29.8133 82.5938 20.96C82.5404 20.8533 82.5138 20.6667 82.5138 20.4C82.5138 20.2933 82.5671 20.0267 82.6738 19.6V18.72C82.7271 17.7067 83.4204 16.8533 84.7538 16.16C86.0871 15.4133 87.5004 15.04 88.9938 15.04C90.0071 15.04 90.8071 15.2267 91.3938 15.6C92.0338 15.9733 92.3537 16.56 92.3537 17.36V18.16C98.8071 27.0667 105.847 32.5067 113.474 34.48C114.274 34.7467 114.78 34.9867 114.994 35.2ZM129.144 42.88L128.504 44.48L134.104 49.2L133.544 46.88C133.171 45.3867 132.424 42.2133 131.304 37.36L129.144 42.88ZM138.264 19.52C139.011 24.16 139.944 28.88 141.064 33.68C142.238 38.4267 143.651 43.8933 145.304 50.08C146.851 55.9467 147.864 59.84 148.344 61.76C148.398 61.92 148.424 62.16 148.424 62.48C148.424 63.76 147.704 64.88 146.264 65.84C144.824 66.7467 143.331 67.2 141.784 67.2C140.504 67.2 139.518 66.8533 138.824 66.16C137.278 64.5067 135.651 62.9333 133.944 61.44C132.238 59.9467 129.998 58.1067 127.224 55.92L124.584 53.76C122.344 58.56 120.611 62.1067 119.384 64.4C119.011 65.2 118.024 65.9467 116.424 66.64C114.878 67.28 113.438 67.6 112.104 67.6C110.611 67.6 109.864 67.12 109.864 66.16C109.864 65.8933 109.944 65.5733 110.104 65.2C111.704 61.2533 113.598 56.72 115.784 51.6L117.464 47.52C116.131 46.1867 115.464 45.52 115.464 45.52C115.091 45.1467 114.904 44.72 114.904 44.24C114.904 43.3333 115.491 42.48 116.664 41.68C117.838 40.8267 119.144 40.2667 120.584 40C123.144 33.8667 125.544 27.6267 127.784 21.28C127.998 20.5333 128.664 19.8933 129.784 19.36C130.958 18.7733 132.184 18.4 133.464 18.24C134.371 17.9733 135.144 17.84 135.784 17.84C137.278 17.84 138.104 18.4 138.264 19.52Z" fill="#0071E3"/>
<rect x="21" y="73.8398" width="110" height="23.326" transform="rotate(-2 21 73.8398)" fill="black"/>
<path d="M32.7537 91.3519C31.8225 91.3845 31.044 91.2335 30.4183 90.8991C29.7925 90.5609 29.343 90.0611 29.0697 89.3998C28.7964 88.7347 28.7228 87.9299 28.849 86.9856C28.9689 86.0793 29.2538 85.281 29.7034 84.5906C30.1569 83.9001 30.7386 83.3549 31.4485 82.9549C32.1623 82.5547 32.9696 82.3389 33.8706 82.3074C34.5293 82.2844 35.1102 82.3665 35.6132 82.5536C36.12 82.7406 36.5374 83.0235 36.8652 83.4025C37.193 83.7814 37.4214 84.2453 37.5505 84.7942C37.6833 85.3391 37.7049 85.9599 37.6156 86.6567L37.5274 87.3875L29.7367 87.6595L29.949 85.9238L34.8551 85.7525C34.8842 85.5013 34.8519 85.2826 34.7582 85.0964C34.6682 84.9062 34.5286 84.7614 34.3394 84.6618C34.1539 84.5584 33.9324 84.5112 33.675 84.5202C33.4176 84.5292 33.1772 84.5925 32.9539 84.7102C32.7344 84.8278 32.5486 84.9878 32.3964 85.1902C32.2481 85.3925 32.1521 85.627 32.1083 85.8939L31.8311 87.7228C31.7954 88.0046 31.8212 88.2538 31.9084 88.4706C31.9955 88.6874 32.1397 88.8548 32.3409 88.9728C32.5421 89.0909 32.7979 89.1445 33.1084 89.1337C33.3204 89.1263 33.52 89.0909 33.7073 89.0275C33.8982 88.9602 34.0656 88.8671 34.2092 88.7484C34.3565 88.6258 34.4727 88.4796 34.5578 88.3099L37.4197 88.2099C37.2364 88.8227 36.9311 89.3602 36.5038 89.8224C36.0801 90.2806 35.5508 90.644 34.9159 90.9126C34.2846 91.1772 33.5639 91.3236 32.7537 91.3519ZM42.5049 91.0114C41.5585 91.0445 40.7721 90.8843 40.1458 90.531C39.5193 90.1738 39.0713 89.6626 38.8017 88.9974C38.5319 88.3284 38.4572 87.5445 38.5774 86.6458C38.6901 85.7474 38.9693 84.9531 39.4152 84.2629C39.8648 83.5687 40.4521 83.0214 41.1772 82.6208C41.9059 82.2164 42.7435 81.9976 43.6899 81.9646C44.5454 81.9347 45.2644 82.065 45.8469 82.3554C46.433 82.642 46.8589 83.063 47.1247 83.6184C47.3941 84.17 47.4815 84.8264 47.3868 85.5877L44.4795 85.6893C44.4977 85.2338 44.4117 84.8881 44.2215 84.6522C44.0351 84.4161 43.7716 84.304 43.4309 84.3159C43.1508 84.3257 42.8961 84.4142 42.667 84.5814C42.4415 84.7447 42.251 84.9882 42.0955 85.312C41.9437 85.6319 41.8383 86.0316 41.7792 86.5113C41.7202 86.9909 41.7246 87.3887 41.7925 87.7047C41.864 88.0168 41.9896 88.2493 42.1693 88.4022C42.3527 88.5512 42.5806 88.621 42.8532 88.6114C43.0879 88.6032 43.3018 88.5427 43.495 88.4298C43.6918 88.3131 43.8584 88.148 43.995 87.9348C44.1353 87.7177 44.2379 87.4563 44.3031 87.1509L47.2104 87.0493C47.0935 87.8266 46.8273 88.5068 46.4118 89.0898C45.9963 89.6728 45.457 90.1313 44.7941 90.4653C44.1311 90.7992 43.368 90.9813 42.5049 91.0114ZM52.2021 90.6728C51.2557 90.7058 50.4694 90.5457 49.843 90.1923C49.2203 89.835 48.7742 89.3238 48.5046 88.6586C48.2348 87.9895 48.1582 87.2057 48.2746 86.3072C48.3911 85.4086 48.6722 84.6143 49.1181 83.924C49.5639 83.23 50.1493 82.6827 50.8744 82.2822C51.5994 81.8779 52.4369 81.6591 53.3871 81.6259C54.3297 81.593 55.1124 81.7552 55.7351 82.1125C56.3614 82.4658 56.8094 82.977 57.0792 83.646C57.3526 84.3111 57.431 85.093 57.3146 85.9915C57.1981 86.8901 56.9152 87.6864 56.4656 88.3805C56.016 89.0709 55.4286 89.6182 54.7037 90.0226C53.9824 90.423 53.1485 90.6397 52.2021 90.6728ZM52.5073 88.3425C52.7799 88.333 53.0247 88.2354 53.2419 88.0497C53.4628 87.8638 53.647 87.6034 53.7945 87.2685C53.9458 86.9335 54.0513 86.5375 54.1112 86.0806C54.1709 85.6199 54.1686 85.2277 54.1042 84.904C54.0397 84.5765 53.9211 84.3267 53.7483 84.1546C53.5755 83.9825 53.3529 83.9012 53.0803 83.9107C52.8077 83.9203 52.561 84.0179 52.3401 84.2038C52.1192 84.3897 51.9349 84.65 51.7875 84.9849C51.6398 85.316 51.5362 85.7119 51.4764 86.1726C51.4166 86.6296 51.417 87.0218 51.4777 87.3494C51.5422 87.6769 51.6609 87.9267 51.8337 88.0988C52.0102 88.2708 52.2348 88.352 52.5073 88.3425ZM58.0339 90.3099L59.183 81.5372L62.1585 81.4333L61.9438 83.1009L62.0346 83.0977C62.2844 82.5432 62.6498 82.0984 63.1308 81.7632C63.6118 81.4281 64.1571 81.2498 64.7665 81.2285C65.376 81.2073 65.8814 81.3526 66.2827 81.6645C66.6838 81.9727 66.8956 82.3936 66.918 82.9272L67.0089 82.924C67.225 82.3821 67.5943 81.9409 68.1168 81.6005C68.6392 81.2563 69.2259 81.0728 69.8771 81.0501C70.7061 81.0211 71.3458 81.2679 71.7961 81.7904C72.2502 82.3127 72.4172 83.0232 72.2969 83.9219L71.5257 89.8388L68.3912 89.9483L69.0767 84.8303C69.1163 84.4461 69.0529 84.1489 68.8864 83.9387C68.7197 83.7247 68.4736 83.6234 68.148 83.6347C67.8262 83.646 67.5575 83.7653 67.3418 83.9926C67.1298 84.2161 67.004 84.5199 66.9643 84.9041L66.2789 90.022L63.2807 90.1267L63.9662 85.0088C64.0058 84.6246 63.9424 84.3274 63.7758 84.1171C63.6092 83.9031 63.3631 83.8018 63.0375 83.8132C62.8255 83.8206 62.6342 83.8765 62.4635 83.981C62.2966 84.0854 62.1595 84.2323 62.0525 84.4218C61.949 84.6073 61.8828 84.8276 61.8538 85.0825L61.1684 90.2005L58.0339 90.3099ZM73.0716 89.7848L74.2207 81.0121L77.1962 80.9082L76.9815 82.5758L77.0724 82.5726C77.3221 82.0181 77.6875 81.5733 78.1685 81.2381C78.6495 80.9029 79.1948 80.7247 79.8042 80.7034C80.4137 80.6821 80.9191 80.8275 81.3204 81.1394C81.7215 81.4476 81.9333 81.8685 81.9557 82.4021L82.0466 82.3989C82.2627 81.857 82.632 81.4158 83.1545 81.0754C83.6769 80.7312 84.2636 80.5477 84.9148 80.5249C85.7438 80.496 86.3835 80.7428 86.8338 81.2652C87.2879 81.7876 87.4549 82.4981 87.3346 83.3968L86.5634 89.3137L83.4289 89.4231L84.1144 84.3052C84.154 83.921 84.0906 83.6238 83.9241 83.4136C83.7574 83.1995 83.5113 83.0982 83.1857 83.1096C82.864 83.1208 82.5952 83.2401 82.3795 83.4675C82.1675 83.6909 82.0417 83.9948 82.002 84.3789L81.3166 89.4969L78.3184 89.6016L79.0039 84.4836C79.0435 84.0995 78.9801 83.8022 78.8135 83.592C78.6469 83.378 78.4008 83.2767 78.0752 83.2881C77.8632 83.2955 77.6719 83.3514 77.5012 83.4559C77.3343 83.5603 77.1973 83.7072 77.0902 83.8967C76.9867 84.0822 76.9205 84.3025 76.8915 84.5574L76.2061 89.6754L73.0716 89.7848ZM92.2487 89.2743C91.3175 89.3068 90.539 89.1559 89.9133 88.8215C89.2875 88.4832 88.838 87.9835 88.5647 87.3222C88.2913 86.6571 88.2178 85.8523 88.344 84.9079C88.4639 84.0017 88.7487 83.2034 89.1984 82.513C89.6519 81.8225 90.2336 81.2773 90.9435 80.8773C91.6573 80.4771 92.4646 80.2613 93.3656 80.2298C94.0243 80.2068 94.6051 80.2889 95.1082 80.476C95.615 80.663 96.0323 80.9459 96.3602 81.3249C96.688 81.7038 96.9164 82.1677 97.0455 82.7166C97.1783 83.2615 97.1999 83.8823 97.1106 84.5791L97.0224 85.3099L89.2317 85.5819L89.4439 83.8462L94.35 83.6749C94.3792 83.4237 94.3469 83.205 94.2532 83.0187C94.1632 82.8286 94.0236 82.6837 93.8344 82.5842C93.6489 82.4808 93.4274 82.4336 93.17 82.4426C92.9125 82.4515 92.6722 82.5149 92.4489 82.6326C92.2294 82.7502 92.0435 82.9102 91.8914 83.1126C91.7431 83.3149 91.6471 83.5494 91.6033 83.8163L91.3261 85.6452C91.2904 85.9269 91.3162 86.1762 91.4033 86.393C91.4905 86.6098 91.6347 86.7772 91.8359 86.8952C92.0371 87.0133 92.2929 87.0669 92.6033 87.0561C92.8153 87.0487 93.015 87.0133 93.2023 86.9499C93.3932 86.8825 93.5605 86.7895 93.7042 86.6708C93.8515 86.5482 93.9677 86.402 94.0528 86.2322L96.9146 86.1323C96.7314 86.7451 96.4261 87.2826 95.9988 87.7448C95.5751 88.203 95.0458 88.5664 94.4108 88.835C93.7795 89.0996 93.0588 89.246 92.2487 89.2743ZM97.8151 88.9208L98.9641 80.148L102.008 80.0418L101.793 81.7094L101.884 81.7062C102.124 81.0838 102.436 80.6238 102.819 80.3261C103.203 80.0284 103.628 79.8715 104.093 79.8552C104.23 79.8505 104.361 79.8573 104.486 79.8756C104.616 79.89 104.744 79.9121 104.87 79.9418L104.509 82.6379C104.359 82.5862 104.174 82.5529 103.954 82.5379C103.734 82.519 103.538 82.5126 103.368 82.5185C103.065 82.5291 102.783 82.609 102.523 82.7584C102.267 82.9038 102.05 83.1046 101.874 83.361C101.7 83.6134 101.589 83.9072 101.54 84.2424L100.95 88.8113L97.8151 88.9208ZM108.433 88.7091C107.487 88.7422 106.701 88.582 106.074 88.2287C105.448 87.8715 105 87.3603 104.73 86.6951C104.461 86.0261 104.386 85.2422 104.506 84.3435C104.619 83.4451 104.898 82.6508 105.344 81.9606C105.793 81.2664 106.381 80.7191 107.106 80.3185C107.834 79.9141 108.672 79.6953 109.618 79.6623C110.474 79.6324 111.193 79.7627 111.775 80.0531C112.362 80.3397 112.788 80.7607 113.053 81.3161C113.323 81.8677 113.41 82.5241 113.315 83.2855L110.408 83.387C110.426 82.9315 110.34 82.5858 110.15 82.3499C109.964 82.1138 109.7 82.0018 109.359 82.0137C109.079 82.0234 108.825 82.1119 108.596 82.2791C108.37 82.4424 108.18 82.6859 108.024 83.0097C107.872 83.3296 107.767 83.7294 107.708 84.209C107.649 84.6886 107.653 85.0864 107.721 85.4024C107.793 85.7145 107.918 85.947 108.098 86.0999C108.281 86.2489 108.509 86.3187 108.782 86.3092C109.016 86.301 109.23 86.2404 109.424 86.1276C109.62 86.0108 109.787 85.8458 109.924 85.6325C110.064 85.4154 110.167 85.1541 110.232 84.8486L113.139 84.7471C113.022 85.5243 112.756 86.2045 112.34 86.7875C111.925 87.3706 111.386 87.8291 110.723 88.163C110.06 88.497 109.297 88.679 108.433 88.7091ZM118.108 88.3713C117.177 88.4038 116.398 88.2529 115.773 87.9184C115.147 87.5802 114.697 87.0805 114.424 86.4191C114.151 85.754 114.077 84.9493 114.203 84.0049C114.323 83.0987 114.608 82.3004 115.058 81.61C115.511 80.9195 116.093 80.3743 116.803 79.9742C117.516 79.5741 118.324 79.3583 119.225 79.3268C119.884 79.3038 120.464 79.3859 120.967 79.573C121.474 79.7599 121.892 80.0429 122.219 80.4218C122.547 80.8008 122.776 81.2647 122.905 81.8135C123.037 82.3585 123.059 82.9793 122.97 83.676L122.882 84.4068L115.091 84.6789L115.303 82.9432L120.209 82.7718C120.238 82.5207 120.206 82.302 120.112 82.1157C120.022 81.9256 119.883 81.7807 119.694 81.6812C119.508 81.5778 119.287 81.5305 119.029 81.5395C118.772 81.5485 118.531 81.6119 118.308 81.7296C118.089 81.8472 117.903 82.0072 117.751 82.2096C117.602 82.4118 117.506 82.6464 117.463 82.9132L117.185 84.7422C117.15 85.0239 117.175 85.2732 117.263 85.49C117.35 85.7067 117.494 85.8742 117.695 85.9922C117.896 86.1103 118.152 86.1639 118.463 86.153C118.675 86.1456 118.874 86.1102 119.062 86.0468C119.252 85.9795 119.42 85.8865 119.563 85.7678C119.711 85.6451 119.827 85.499 119.912 85.3292L122.774 85.2293C122.591 85.8421 122.285 86.3796 121.858 86.8418C121.434 87.3 120.905 87.6634 120.27 87.9319C119.639 88.1966 118.918 88.343 118.108 88.3713Z" fill="white"/>
</svg>
